<svg viewBox="0 325.21660649819495 1512 98.32129963898917" fill="none" style="max-height: 500px" xmlns="http://www.w3.org/2000/svg" width="1512" height="98.32129963898917">
            {" "}
            <path stroke-miterlimit="22.9256" stroke-width="3.77896" stroke="black" fill="#008B9F" d="M1510.11 1.88965V374.6C1510.11 398.075 1491.05 417.11 1467.53 417.11C1444.01 417.11 1424.95 398.075 1424.95 374.6C1424.95 349.136 1404.36 328.483 1378.9 328.312H1378.27C1352.82 328.482 1332.23 349.136 1332.23 374.6C1332.23 398.075 1313.17 417.11 1289.65 417.11C1266.13 417.11 1247.07 398.075 1247.07 374.6C1247.07 349.136 1226.48 328.482 1201.02 328.312H1200.39C1174.93 328.483 1154.35 349.136 1154.35 374.6C1154.35 398.075 1135.28 417.11 1111.77 417.11C1088.25 417.11 1069.18 398.075 1069.18 374.6C1069.18 349.136 1048.6 328.483 1023.14 328.312H1022.51C997.053 328.482 976.464 349.136 976.464 374.6C976.464 398.075 957.402 417.11 933.883 417.11C910.363 417.11 891.302 398.075 891.302 374.6C891.302 349.136 870.713 328.482 845.257 328.312H844.626C819.17 328.482 798.581 349.136 798.581 374.6C798.581 398.075 779.519 417.11 756 417.11C732.481 417.11 713.419 398.075 713.419 374.6C713.419 349.136 692.83 328.482 667.374 328.312H666.744C641.288 328.482 620.699 349.136 620.699 374.6C620.699 398.075 601.637 417.11 578.118 417.11C554.599 417.11 535.537 398.075 535.537 374.6C535.537 349.136 514.948 328.482 489.492 328.312H488.861C463.406 328.483 442.816 349.136 442.816 374.6C442.816 398.075 423.755 417.11 400.235 417.11C376.716 417.11 357.656 398.075 357.655 374.6C357.655 349.136 337.066 328.483 311.61 328.312H310.979C285.524 328.482 264.935 349.136 264.935 374.6C264.934 398.075 245.873 417.11 222.354 417.11C198.834 417.11 179.773 398.075 179.772 374.6C179.772 349.136 159.184 328.482 133.728 328.312H133.097C107.641 328.483 87.0518 349.136 87.0518 374.6C87.0515 398.075 67.9901 417.11 44.4707 417.11C20.9515 417.11 1.89087 398.075 1.89062 374.6V1.88965H1510.11Z"/>{" "}
          </svg>